<svg xmlns="http://www.w3.org/2000/svg" viewBox="0 0 1200 630"><defs><style>.cls-1{fill:#fff;}.cls-2{fill:#2d2d2d;}.cls-3{fill:#fce574;}.cls-4{fill:#d4d6d6;}</style></defs><g id="Layer_2" data-name="Layer 2"><g id="Layer_1-2" data-name="Layer 1"><rect class="cls-1" width="1200" height="630"/><g id="Layer_2-2" data-name="Layer 2"><g id="Layer_1-2-2" data-name="Layer 1-2"><path class="cls-2" d="M549.68,272.51q8.21-3.57,15.18-6c4.66-1.62,8.95-2.87,13-4a94.46,94.46,0,0,1,11.21-2.06,100.62,100.62,0,0,1,10.12-.57,25,25,0,0,1,18.42,6.32c4,4,6.4,11,6.4,20.24v97.16H597.89V290.45a32.09,32.09,0,0,0-.56-5.79,14,14,0,0,0-2.15-5.26,11.73,11.73,0,0,0-4-3.81,13.47,13.47,0,0,0-6.59-1.46,80.59,80.59,0,0,0-34.74,8.1v101.2H523.57v-121h26.11Z"/><path class="cls-2" d="M687.08,260.05a46.82,46.82,0,0,1,22.18,4.81,41.42,41.42,0,0,1,14.82,13,54.71,54.71,0,0,1,8.09,19,100,100,0,0,1,2.51,22.67v6.08h-79.1a58.79,58.79,0,0,0,2.31,15.54,47,47,0,0,0,7.49,15.43,43.19,43.19,0,0,0,13.52,11.78A40.8,40.8,0,0,0,699.14,373H725.9V383.6H698.78a103.44,103.44,0,0,1-31-4.05,55.33,55.33,0,0,1-21.5-12.15,47.59,47.59,0,0,1-12.39-19.14,77.36,77.36,0,0,1-4.05-25.87,73.87,73.87,0,0,1,3.77-23.4,61.58,61.58,0,0,1,11.05-20,53.64,53.64,0,0,1,17.89-13.88A54.32,54.32,0,0,1,687.08,260.05Zm-1.3,11.78a24.88,24.88,0,0,0-13.64,3.6,29.1,29.1,0,0,0-9.31,9.55,44.83,44.83,0,0,0-5.39,13.89,81.45,81.45,0,0,0-1.86,16.39H710v-5.58a114.05,114.05,0,0,0-1.38-14.29,39.54,39.54,0,0,0-3.76-12.15,22.44,22.44,0,0,0-7.29-8.42A20.2,20.2,0,0,0,685.78,271.83Z"/><path class="cls-2" d="M787.55,274.05H770.19V383.6h-24.5V274.05H729V262.47h16.71V223l24.7-7.44v46.91h17.37Z"/><path class="cls-2" d="M851.35,274.05H835.16V430.52l-24.69,7.28V274.05H793.91V262.47h16.56V214.54a26.33,26.33,0,0,1,2.38-9.51,21.64,21.64,0,0,1,5.27-7,22.63,22.63,0,0,1,7.65-4,31.28,31.28,0,0,1,9.51-1.38h21.86v11.54c-4.86,0-8.74,0-11.62.28a17.66,17.66,0,0,0-6.64,1.42,5.4,5.4,0,0,0-3,3.32,23.44,23.44,0,0,0-.65,6.07v47.2h16.19Z"/><path class="cls-2" d="M898,271.1a87.53,87.53,0,0,0-10.73.4c-3,.41-5.83.61-8.3,1.05s-4.82.94-7,1.54-4.29,1.14-6.4,1.78l-3.12-8.38a115.07,115.07,0,0,1,22.59-5.7,148.87,148.87,0,0,1,22.31-1.74,144.29,144.29,0,0,1,22.18,1.41,34.51,34.51,0,0,1,13.56,4.7,16.65,16.65,0,0,1,6.72,8.74,42.85,42.85,0,0,1,1.87,13.69v95H909.57A104.83,104.83,0,0,1,880.18,380a58,58,0,0,1-19.88-9.71,37.76,37.76,0,0,1-11.3-14,40,40,0,0,1-3.6-16.64,49.47,49.47,0,0,1,3.4-19,36.66,36.66,0,0,1,9.84-13.85,42.82,42.82,0,0,1,15.71-8.46,69.7,69.7,0,0,1,21-2.91A57.39,57.39,0,0,1,910,297.57a63.94,63.94,0,0,1,15.63,6.64V288a30.94,30.94,0,0,0-.65-6,9.9,9.9,0,0,0-3.36-5.43,21,21,0,0,0-8.3-4.05A60.86,60.86,0,0,0,898,271.1ZM925.64,373V313.52a49.89,49.89,0,0,0-12.88-5.5A55.77,55.77,0,0,0,898,306.2a26.53,26.53,0,0,0-11.38,2.3,22.33,22.33,0,0,0-8.3,6.56,29.82,29.82,0,0,0-5.06,10.16,45.81,45.81,0,0,0-1.74,13.12v5.38a36,36,0,0,0,1.3,7.21,33.88,33.88,0,0,0,3.36,7.77,24.35,24.35,0,0,0,6.35,7.17,33.51,33.51,0,0,0,10.41,5.18,51.84,51.84,0,0,0,15.42,2Z"/><path class="cls-2" d="M987.21,272.51q8.25-3.57,15.18-6c4.62-1.62,9-2.87,13-4a95.65,95.65,0,0,1,11.26-2.06,97,97,0,0,1,10.08-.57,25.14,25.14,0,0,1,18.46,6.32c4,4,6.35,11,6.35,20.24v97.16h-26.11V290.45a32.09,32.09,0,0,0-.56-5.79,14.35,14.35,0,0,0-2.15-5.26,11.55,11.55,0,0,0-4-3.81,13.49,13.49,0,0,0-6.6-1.46,80.58,80.58,0,0,0-34.73,8.1v101.2H961.22v-121h26.11Z"/><rect class="cls-2" x="142.35" y="142.12" width="345.8" height="345.8"/><path class="cls-3" d="M329.74,410.6H308.13L202.18,262.11V410.6H189.07V243.73L172,219.44h34.45L316.59,374V219.4h13.23Z"/><path class="cls-3" d="M458.52,219.4V232H369.78v58h86v12.59h-86v108H341.44V219.4Z"/><path class="cls-4" d="M492,491.76H138.47V138.24H492ZM146.2,484H484.26V146H146.2Z"/></g></g></g></g></svg>